<svg viewBox="0 0 68 68" fill="none" stroke="black" xmlns="http://www.w3.org/2000/svg">
<path fill-rule="evenodd" clip-rule="evenodd" d="M33.7904 2C37.6438 2 38.1255 7.42377 38.6072 10.8753C39.0889 14.3267 43.4239 16.299 46.314 14.1926C49.2041 12.0862 53.1259 8.61414 55.8506 11.4034C58.5754 14.1926 55.6028 17.6501 53.1259 21.1656C50.649 24.6812 52.094 28.6258 57.3299 29.6119C62.5657 30.598 66 30.598 66 34.5426C66 38.4872 60.7016 38.9802 57.3299 39.4733C53.9582 39.9664 52.0315 44.404 54.0892 47.3625C56.147 50.3209 59.5387 54.3355 56.814 57.1248C54.0892 59.914 50.6491 56.871 47.2773 54.3355C43.9056 51.8 39.5705 53.2793 39.0263 57.1247C38.4821 60.9702 38.0629 66 34.2096 66C30.3562 66 29.8745 60.5762 29.3928 57.1247C28.9111 53.6733 24.5761 51.701 21.686 53.8074C18.7959 55.9138 14.8741 59.3859 12.1494 56.5966C9.4246 53.8074 12.3972 50.3499 14.8741 46.8343C17.351 43.3188 15.906 39.3742 10.6701 38.3881C5.43427 37.402 2 37.402 2 33.4574C2 29.5128 7.29841 29.0198 10.6701 28.5267C14.0418 28.0336 15.9685 23.596 13.9108 20.6375C11.853 17.6791 8.46127 13.6645 11.186 10.8752C13.9108 8.08602 16.8067 11.0299 20.7227 13.6645C24.6386 16.299 28.492 14.8198 28.9737 10.8753C29.4554 6.9307 29.9371 2 33.7904 2ZM34.2721 45.3901C40.3906 45.3901 45.3506 40.3128 45.3506 34.0495C45.3506 27.7863 40.3906 22.7089 34.2721 22.7089C28.1536 22.7089 23.1936 27.7863 23.1936 34.0495C23.1936 40.3128 28.1536 45.3901 34.2721 45.3901Z" stroke-width="4" stroke-linecap="round" stroke-linejoin="round"/>
</svg>
