<svg width="68" height="52" viewBox="0 0 68 52" fill="none" stroke="black" xmlns="http://www.w3.org/2000/svg">
<path d="M3.03226 30.5291C4.02116 29.1945 5.59123 28.2354 7.16129 28.2354L22.129 28.2353C23.2277 28.2353 24.3263 28.7049 25.2258 29.4442M3.03226 30.5291C2.39574 31.3882 2 32.4028 2 33.4174C2 33.4174 2.51613 42.227 3.03226 44.818C3.54839 47.4089 5.6129 50 8.19355 50L21.0968 49.9999C23.6774 49.9999 25.7419 47.4089 26.2581 44.8179L27.2903 33.4173C27.2903 31.9294 26.4392 30.4414 25.2258 29.4442M3.03226 30.5291C3.03226 30.5291 19.5484 5.43425 21.0968 3.3615C22.6452 1.28874 28.8387 1.28874 29.871 5.43431M25.2258 29.4442C31.9355 28.2354 36.0645 28.2354 42.7742 29.4442M64.9677 30.5291C63.9788 29.1945 62.4088 28.2354 60.8387 28.2354L45.871 28.2353C44.7723 28.2353 43.6737 28.7049 42.7742 29.4442M64.9677 30.5291C65.6043 31.3882 66 32.4028 66 33.4174C66 33.4174 65.4839 42.227 64.9677 44.818C64.4516 47.4089 62.3871 50 59.8064 50L46.9032 49.9999C44.3226 49.9999 42.2581 47.4089 41.7419 44.8179L40.7097 33.4173C40.7097 31.9294 41.5608 30.4414 42.7742 29.4442M64.9677 30.5291C64.9677 30.5291 48.4516 5.43425 46.9032 3.3615C45.3548 1.28874 39.1613 1.28874 38.129 5.43431" stroke-width="4" stroke-linecap="round" stroke-linejoin="round"/>
</svg>
