<svg viewBox="0 0 68 68" fill="none" stroke="black" xmlns="http://www.w3.org/2000/svg">
<path d="M27.1912 15.6393V30.4754C27.1912 30.4754 7.37678 51.5 3.70198 55.5082C0.0271774 59.5164 2.55607 66 8.85815 66H59.1419C65.444 66 67.9728 60.0164 64.298 55.5082C60.6233 51 40.8088 30.4754 40.8088 30.4754V15.6393H43.1004C45.3922 15.6393 48.8295 15.1148 48.8295 12.4918C48.8295 9.86885 48.8294 7.2459 48.8295 5.14754C48.8296 3.04918 47.1109 2 43.1004 2H24.8996C20.8891 2 19.1704 3.04918 19.1705 5.14754C19.1706 7.2459 19.1705 9.86885 19.1705 12.4918C19.1705 15.1148 22.6078 15.6393 24.8996 15.6393M27.1912 15.6393C27.1912 15.6393 25.4724 15.6393 24.8996 15.6393M27.1912 15.6393H24.8996M23.1726 57H44.8274" stroke-width="4" stroke-linecap="round" stroke-linejoin="round"/>
</svg>
